<svg width="32" height="32" viewBox="0 0 32 32" fill="none" xmlns="http://www.w3.org/2000/svg">
<rect width="32" height="32" rx="16" fill="#FF8211"/>
<path d="M23.4723 21.1412C23.3721 21.5715 23.1359 21.9581 22.7988 22.2437C22.4223 22.6265 21.973 22.9301 21.4773 23.1365C20.9817 23.3428 20.4497 23.4478 19.9128 23.4452H19.6443C18.5298 23.3871 17.4375 23.1114 16.429 22.6337C16.1845 22.5189 15.9468 22.4117 15.664 22.2812C14.482 21.6137 13.3972 20.7872 12.4398 19.8249C11.1952 18.6577 10.1753 17.272 9.43075 15.7367C9.02086 14.8991 8.74476 14.0025 8.6125 13.0794C8.42772 12.1176 8.53697 11.1223 8.926 10.2234C9.168 9.81535 9.4642 9.44195 9.8065 9.11344C9.96286 8.94287 10.1519 8.8055 10.3625 8.70951C10.573 8.61352 10.8007 8.56087 11.032 8.55469C11.2842 8.58135 11.5286 8.6581 11.7507 8.78045C11.9729 8.9028 12.1684 9.06828 12.3258 9.26719C12.6783 9.65719 13.0908 10.0322 13.4658 10.4297L13.9488 10.9052C14.2338 11.1549 14.41 11.5067 14.4385 11.8847C14.4393 12.2327 14.311 12.5679 14.0785 12.8267C13.9321 13.0081 13.7764 13.1819 13.612 13.3472L13.4508 13.5159C13.3568 13.6032 13.2836 13.7103 13.2363 13.8294C13.1973 13.9449 13.1838 14.0679 13.1988 14.1894C13.3218 14.5224 13.5145 14.8254 13.765 15.0774C14.155 15.6054 14.53 16.0652 14.9515 16.6089C15.6785 17.4477 16.5403 18.1592 17.5015 18.7142C17.5938 18.7892 17.704 18.8394 17.8225 18.8597C17.9275 18.8754 18.0333 18.8597 18.1285 18.8132C18.4206 18.6569 18.6804 18.4467 18.8943 18.1937C19.1643 17.8607 19.5558 17.6492 19.9818 17.6034C20.1862 17.6042 20.3885 17.6459 20.5766 17.7262C20.7646 17.8064 20.9347 17.9236 21.0768 18.0707C21.2518 18.2217 21.4175 18.3824 21.574 18.5529L21.8035 18.7982L22.0413 19.0277C22.186 19.1732 22.324 19.3037 22.4613 19.4567C22.7113 19.6717 22.9438 19.9039 23.1588 20.1534C23.3785 20.4339 23.4895 20.7849 23.4723 21.1412Z" fill="white"/>
</svg>
