<svg width="30" height="30" viewBox="0 0 30 30" fill="none" xmlns="http://www.w3.org/2000/svg">
<path d="M24.0236 3H4.97639C4.18723 3.00074 3.4306 3.31455 2.87258 3.87258C2.31455 4.4306 2.00074 5.18723 2 5.97639V25.0236C2 26.6667 3.33472 28 4.97639 28H24.0236C24.8128 27.9993 25.5694 27.6854 26.1274 27.1274C26.6854 26.5694 26.9993 25.8128 27 25.0236V5.97639C26.9993 5.18723 26.6854 4.4306 26.1274 3.87258C25.5694 3.31455 24.8128 3.00074 24.0236 3ZM21.6458 13.9069C20.7698 13.992 19.8883 13.8125 19.1153 13.3917C18.4632 13.0401 17.9094 12.5312 17.5042 11.9111V18.7778C17.5042 19.7815 17.2065 20.7627 16.6489 21.5973C16.0912 22.4319 15.2986 23.0823 14.3713 23.4665C13.4439 23.8506 12.4235 23.9511 11.4391 23.7553C10.4546 23.5594 9.55035 23.0761 8.8406 22.3663C8.13085 21.6566 7.6475 20.7523 7.45168 19.7679C7.25586 18.7834 7.35636 17.763 7.74048 16.8357C8.12459 15.9083 8.77507 15.1157 9.60965 14.5581C10.4442 14.0004 11.4254 13.7028 12.4292 13.7028C12.5347 13.7028 12.6375 13.7125 12.7417 13.7181V16.2194C12.6375 16.2069 12.5361 16.1875 12.4292 16.1875C11.7422 16.1875 11.0833 16.4604 10.5976 16.9462C10.1118 17.4319 9.83889 18.0908 9.83889 18.7778C9.83889 19.4648 10.1118 20.1236 10.5976 20.6094C11.0833 21.0952 11.7422 21.3681 12.4292 21.3681C13.8597 21.3681 15.1236 20.2417 15.1236 18.8111L15.1486 7.14722H17.5417C17.6512 8.18671 18.1225 9.15466 18.8731 9.88199C19.6238 10.6093 20.6062 11.0498 21.6486 11.1264V13.9069" fill="white"/>
</svg>
